<svg xmlns="http://www.w3.org/2000/svg" width="1360" height="920" viewBox="0 0 1360 920">
  <defs>
    <style>
      .title { font: 700 42px Georgia, "Times New Roman", serif; fill: #111; }
      .caption { font: 400 21px Georgia, "Times New Roman", serif; fill: #111; }
      .legend { font: 400 20px Georgia, "Times New Roman", serif; fill: #222; }
      .layerlabel { font: 400 24px Georgia, "Times New Roman", serif; fill: #222; }
      .field { font: italic 23px Georgia, "Times New Roman", serif; fill: #222; }
      .dashedbox { fill: none; stroke: #7a7a7a; stroke-width: 2.2; stroke-dasharray: 10 8; }
      .solidline { stroke: #222; stroke-width: 2.8; fill: none; }
      .redline { stroke: #d11; stroke-width: 3.2; fill: none; }
      .blueline { stroke: #63b3ed; stroke-width: 3.2; fill: none; stroke-dasharray: 12 8; }
      .yellow { fill: #f4c430; stroke: #222; stroke-width: 2; }
      .gray { fill: #7f7f7f; stroke: #555; stroke-width: 1; }
      .lightblue { fill: #cfe8ff; stroke: #7aa7d8; stroke-width: 1; }
      .orange { fill: #f4b233; stroke: #c47d00; stroke-width: 1.5; }
    </style>
  </defs>
  <rect width="1360" height="920" fill="#fff"/>
  <text x="680" y="56" text-anchor="middle" class="title">Detailed Architecture Sample: DeepFM</text>

  <g transform="translate(42,76)">
    <circle cx="16" cy="16" r="14" class="yellow"/>
    <line x1="7" y1="16" x2="25" y2="16" class="solidline"/>
    <line x1="16" y1="7" x2="16" y2="25" class="solidline"/>
    <text x="44" y="22" class="legend">Addition</text>

    <circle cx="16" cy="62" r="14" class="yellow"/>
    <line x1="7" y1="53" x2="25" y2="71" class="solidline"/>
    <line x1="7" y1="71" x2="25" y2="53" class="solidline"/>
    <text x="44" y="68" class="legend">Inner Product</text>

    <path d="M2,108 a14,14 0 1,0 28,0 a14,14 0 1,0 -28,0" class="yellow"/>
    <path d="M7,108 C10,94 22,94 25,108 C22,122 10,122 7,108" fill="none" stroke="#222" stroke-width="2"/>
    <text x="44" y="114" class="legend">Sigmoid Function</text>

    <path d="M2,154 a14,14 0 1,0 28,0 a14,14 0 1,0 -28,0" class="yellow"/>
    <path d="M7,160 C10,148 22,148 25,160" fill="none" stroke="#222" stroke-width="2"/>
    <text x="42" y="160" class="legend">Activation Function</text>

    <line x1="330" y1="16" x2="420" y2="16" class="redline"/>
    <polygon points="420,16 406,8 406,24" fill="#d11"/>
    <text x="440" y="22" class="legend">Weight-1 Connection</text>

    <line x1="330" y1="62" x2="420" y2="62" class="solidline"/>
    <polygon points="420,62 406,54 406,70" fill="#222"/>
    <text x="440" y="68" class="legend">Normal Connection</text>

    <line x1="330" y1="108" x2="420" y2="108" class="blueline"/>
    <polygon points="420,108 406,100 406,116" fill="#63b3ed"/>
    <text x="440" y="114" class="legend">Embedding</text>
  </g>

  <rect x="115" y="255" width="1125" height="92" class="dashedbox"/>
  <rect x="115" y="347" width="1125" height="92" class="dashedbox"/>
  <rect x="115" y="439" width="500" height="102" class="dashedbox"/>
  <rect x="655" y="440" width="585" height="180" class="dashedbox"/>
  <rect x="655" y="620" width="585" height="85" class="dashedbox"/>

  <text x="140" y="308" class="layerlabel">Sparse Features</text>
  <text x="140" y="400" class="layerlabel">Dense Embeddings</text>
  <text x="140" y="502" class="layerlabel">FM Layer</text>
  <text x="1220" y="525" text-anchor="end" class="layerlabel">Hidden Layer</text>
  <text x="1145" y="673" text-anchor="end" class="layerlabel">Output Units</text>

  <g>
    <circle cx="390" cy="301" r="11" class="lightblue"/>
    <circle cx="432" cy="301" r="11" class="lightblue"/>
    <circle cx="474" cy="301" r="11" class="orange"/>
    <circle cx="516" cy="301" r="11" class="lightblue"/>
    <circle cx="670" cy="301" r="11" class="lightblue"/>
    <circle cx="712" cy="301" r="11" class="orange"/>
    <circle cx="754" cy="301" r="11" class="lightblue"/>
    <circle cx="796" cy="301" r="11" class="lightblue"/>
    <circle cx="995" cy="301" r="11" class="lightblue"/>
    <circle cx="1037" cy="301" r="11" class="orange"/>
    <circle cx="1079" cy="301" r="11" class="lightblue"/>
    <circle cx="1121" cy="301" r="11" class="lightblue"/>
  </g>

  <g>
    <circle cx="390" cy="398" r="10" class="gray"/>
    <circle cx="420" cy="398" r="10" class="gray"/>
    <circle cx="450" cy="398" r="10" class="gray"/>
    <circle cx="480" cy="398" r="10" class="gray"/>
    <circle cx="510" cy="398" r="10" class="gray"/>
    <circle cx="540" cy="398" r="10" class="gray"/>
    <circle cx="640" cy="398" r="10" class="gray"/>
    <circle cx="670" cy="398" r="10" class="gray"/>
    <circle cx="700" cy="398" r="10" class="gray"/>
    <circle cx="730" cy="398" r="10" class="gray"/>
    <circle cx="760" cy="398" r="10" class="gray"/>
    <circle cx="790" cy="398" r="10" class="gray"/>
    <circle cx="965" cy="398" r="10" class="gray"/>
    <circle cx="995" cy="398" r="10" class="gray"/>
    <circle cx="1025" cy="398" r="10" class="gray"/>
    <circle cx="1055" cy="398" r="10" class="gray"/>
    <circle cx="1085" cy="398" r="10" class="gray"/>
    <circle cx="1115" cy="398" r="10" class="gray"/>
  </g>

  <line x1="474" y1="312" x2="474" y2="379" class="blueline"/>
  <polygon points="474,379 466,365 482,365" fill="#63b3ed"/>
  <line x1="712" y1="312" x2="712" y2="379" class="blueline"/>
  <polygon points="712,379 704,365 720,365" fill="#63b3ed"/>
  <line x1="1037" y1="312" x2="1037" y2="379" class="blueline"/>
  <polygon points="1037,379 1029,365 1045,365" fill="#63b3ed"/>

  <circle cx="428" cy="496" r="18" class="yellow"/>
  <line x1="415" y1="483" x2="441" y2="509" class="solidline"/>
  <line x1="415" y1="509" x2="441" y2="483" class="solidline"/>
  <circle cx="512" cy="496" r="18" class="yellow"/>
  <line x1="499" y1="483" x2="525" y2="509" class="solidline"/>
  <line x1="499" y1="509" x2="525" y2="483" class="solidline"/>
  <circle cx="596" cy="496" r="18" class="yellow"/>
  <line x1="583" y1="483" x2="609" y2="509" class="solidline"/>
  <line x1="583" y1="509" x2="609" y2="483" class="solidline"/>

  <g>
    <path d="M790,480 a18,18 0 1,0 36,0 a18,18 0 1,0 -36,0" class="yellow"/>
    <path d="M795,487 C800,472 816,472 821,487" fill="none" stroke="#222" stroke-width="2"/>
    <path d="M930,480 a18,18 0 1,0 36,0 a18,18 0 1,0 -36,0" class="yellow"/>
    <path d="M935,487 C940,472 956,472 961,487" fill="none" stroke="#222" stroke-width="2"/>
    <path d="M1070,480 a18,18 0 1,0 36,0 a18,18 0 1,0 -36,0" class="yellow"/>
    <path d="M1075,487 C1080,472 1096,472 1101,487" fill="none" stroke="#222" stroke-width="2"/>
    <path d="M790,570 a18,18 0 1,0 36,0 a18,18 0 1,0 -36,0" class="yellow"/>
    <path d="M795,577 C800,562 816,562 821,577" fill="none" stroke="#222" stroke-width="2"/>
    <path d="M930,570 a18,18 0 1,0 36,0 a18,18 0 1,0 -36,0" class="yellow"/>
    <path d="M935,577 C940,562 956,562 961,577" fill="none" stroke="#222" stroke-width="2"/>
    <path d="M1070,570 a18,18 0 1,0 36,0 a18,18 0 1,0 -36,0" class="yellow"/>
    <path d="M1075,577 C1080,562 1096,562 1101,577" fill="none" stroke="#222" stroke-width="2"/>
  </g>

  <circle cx="948" cy="662" r="20" class="yellow"/>
  <path d="M940,662 C944,640 952,640 956,662 C952,684 944,684 940,662" fill="none" stroke="#222" stroke-width="2"/>

  <line x1="510" y1="408" x2="808" y2="480" class="solidline"/>
  <line x1="540" y1="408" x2="948" y2="480" class="solidline"/>
  <line x1="700" y1="408" x2="808" y2="570" class="solidline"/>
  <line x1="730" y1="408" x2="948" y2="570" class="solidline"/>
  <line x1="995" y1="408" x2="1090" y2="480" class="solidline"/>
  <line x1="1025" y1="408" x2="1090" y2="570" class="solidline"/>

  <line x1="826" y1="498" x2="938" y2="648" class="solidline"/>
  <line x1="948" y1="498" x2="948" y2="642" class="solidline"/>
  <line x1="1070" y1="498" x2="958" y2="648" class="solidline"/>
  <line x1="808" y1="588" x2="936" y2="656" class="solidline"/>
  <line x1="948" y1="588" x2="948" y2="642" class="solidline"/>
  <line x1="1090" y1="588" x2="960" y2="656" class="solidline"/>

  <line x1="428" y1="478" x2="934" y2="658" class="redline"/>
  <line x1="512" y1="478" x2="948" y2="654" class="redline"/>
  <line x1="596" y1="478" x2="962" y2="658" class="redline"/>

  <text x="474" y="792" text-anchor="middle" class="field">Field i</text>
  <text x="712" y="792" text-anchor="middle" class="field">Field j</text>
  <text x="1037" y="792" text-anchor="middle" class="field">Field m</text>
  <text x="876" y="792" text-anchor="middle" class="field">...</text>

  <text x="54" y="850" class="caption">Figure 1: Detailed sample architecture for DeepFM-style CTR modeling.</text>
  <text x="54" y="882" class="caption">The FM branch and deep branch share the same raw feature vector and embeddings, enabling the model</text>
  <text x="54" y="910" class="caption">to learn low-order and high-order feature interactions simultaneously from sparse multi-field inputs.</text>
</svg>
